<?xml version="1.0" standalone="no"?>
<!DOCTYPE svg PUBLIC "-//W3C//DTD SVG 20010904//EN"
 "http://www.w3.org/TR/2001/REC-SVG-20010904/DTD/svg10.dtd">
<svg version="1.0" xmlns="http://www.w3.org/2000/svg"
 width="512.000000pt" height="512.000000pt" viewBox="0 0 512.000000 512.000000"
 preserveAspectRatio="xMidYMid meet">

<g transform="translate(0.000000,512.000000) scale(0.100000,-0.100000)" fill="current" stroke="none">
<path d="M2321 5110 c-1340 -130 -2361 -1283 -2318 -2620 13 -389 97 -726 268
-1069 249 -502 647 -900 1150 -1150 815 -406 1779 -350 2539 147 297 194 579
482 771 788 74 116 184 342 234 478 51 138 110 376 131 531 23 157 26 521 6
660 -59 415 -191 769 -410 1099 -92 140 -185 254 -315 385 -399 403 -895 653
-1462 737 -122 18 -466 26 -594 14z m-291 -1410 c144 -23 277 -116 335 -234
48 -98 57 -149 62 -354 l5 -192 -168 2 -169 3 -5 181 c-5 179 -5 181 -33 217
-34 45 -55 56 -116 64 -98 11 -170 -41 -191 -140 -7 -37 -10 -259 -8 -728 l3
-674 24 -42 c34 -60 93 -88 169 -80 59 6 92 25 126 71 19 25 21 45 26 249 l5
222 169 3 168 2 -5 -232 c-5 -249 -12 -291 -62 -394 -92 -187 -342 -283 -597
-230 -195 42 -320 172 -362 378 -24 115 -24 1411 0 1526 59 290 294 434 624
382z m910 -32 c0 -29 222 -1695 228 -1711 4 -9 59 374 122 853 l115 870 163 0
163 0 -6 -32 c-3 -18 -77 -510 -165 -1093 -88 -583 -163 -1075 -166 -1092 l-6
-33 -233 0 -233 0 -6 33 c-3 17 -78 509 -166 1092 -88 583 -162 1075 -165
1093 l-6 32 181 0 c129 0 180 -3 180 -12z"/>
</g>
</svg>